<!DOCTYPE svg PUBLIC "-//W3C//DTD SVG 1.1//EN" "http://www.w3.org/Graphics/SVG/1.1/DTD/svg11.dtd">
<svg x="0" y="0" width="100%" height="100%" overflow="inherit" viewBox="0, 0, 70, 70" preserveAspectRatio="xMidYMid" font-size="0" id="Capa_1" xml:space="default" xmlns="http://www.w3.org/2000/svg" xmlns:xlink="http://www.w3.org/1999/xlink" xmlns:xml="http://www.w3.org/XML/1998/namespace" version="1.1">
  <style xml:space="default">.st0{fill:#174079;} .st1{clip-path:url(#SVGID_2_);} .st2{fill:#FFFFFF;}</style>
  <path d="M0 50.1 C0 42.3 6.4 35.9 14.3 36 C22 36 28.4 42.4 28.3 50.2 C28.3 58 21.9 64.4 14.1 64.3 C6.3 64.2 0 57.9 0 50.1 z M5 50.2 C5 55.2 9 59.3 14.1 59.3 C19.2 59.3 23.3 55.2 23.3 50.2 C23.3 45.1 19.2 41.1 14.2 41.1 C9.099998 41 4.999999 45.1 4.999999 50.2 z M41.7 50.1 C41.7 42.3 48.1 36 55.9 36 C63.7 36 70 42.4 70 50.2 C70 57.9 63.6 64.3 55.8 64.3 C48 64.2 41.7 57.8 41.7 50.1 z M46.7 50.1 C46.7 55.2 50.8 59.3 55.9 59.2 C61 59.2 64.9 55.1 64.9 50.1 C64.9 45 60.9 41 55.7 41 C50.8 41 46.7 45.1 46.7 50.1 z" xml:space="default" class="st0" style="fill:#0A4595;" />
  <path d="M27.2 33.1 C29.1 29.7 30.9 26.5 32.8 23.1 C34.1 25.2 35.4 27.3 36.7 29.3 C37 29.8 37.4 30.3 37.9 30.6 C40.8 32.2 43.7 33.7 46.6 35.2 C47.7 35.8 48.8 35.5 49.6 34.7 C50.3 33.9 50.5 32.6 49.8 31.6 C49.5 31.2 49.1 30.9 48.6 30.6 C46.3 29.3 44 28.1 41.7 26.9 C41.1 26.6 40.6 26.1 40.3 25.6 C38.5 22.8 36.8 20.1 35.1 17.3 C33.7 15 31.5 15.1 30.2 17.4 C27.5 22.3 24.8 27.09999 22.1 32 C21.1 33.7 21.4 34.8 23 36 C26 38.2 29.1 40.4 32.1 42.59999 C32.6 43 32.8 43.3 32.6 44 C31.7 48.2 30.9 52.39999 30 56.6 C29.7 58.2 30.2 59.4 31.4 59.9 C32.9 60.5 34.5 59.7 34.9 58 C35.8 53.59999 36.7 49.3 37.6 44.89999 C38.5 40.89999 38.2 40.99999 35.2 38.8 C32.5 37 29.9 35.09999 27.2 33.09999 z M38.3 15.9 C41.2 15.9 43.4 13.6 43.4 10.8 C43.4 7.999999 41.1 5.699999 38.2 5.699999 C35.4 5.699999 33.1 7.999999 33.1 10.8 C33.2 13.7 35.5 15.9 38.3 15.9 z" xml:space="default" class="st0" style="fill:#0A4595;" />
</svg>